<svg id="Layer_3" height="512" viewBox="0 0 64 64" width="512" xmlns="http://www.w3.org/2000/svg" data-name="Layer 3"><path d="m57 27a25 25 0 1 0 -28.576 24.741l3.576 6.259 3.576-6.259a25 25 0 0 0 21.424-24.741z" fill="#4579a3"/><circle cx="32" cy="27" fill="#ccc" r="19"/><path d="m32 8a18.98 18.98 0 0 0 -15.473 30h24.473a4 4 0 0 0 4-4v-20.83a18.915 18.915 0 0 0 -13-5.17z" fill="#ccc"/><rect height="20" rx="4" width="20" x="19" y="14" fill="#ccc"/><path d="m20 23v4h2l3 10h14l3-10h2v-4z" fill="#4579a3"/><path d="m32 1a26 26 0 0 0 -4.2 51.656l3.337 5.84a1 1 0 0 0 1.736 0l3.337-5.84a26 26 0 0 0 -4.21-51.656zm3.435 49.751a1 1 0 0 0 -.727.494l-2.708 4.739-2.708-4.739a1 1 0 0 0 -.727-.494 24 24 0 1 1 6.87 0z"/><path d="m32 7a20 20 0 1 0 20 20 20.023 20.023 0 0 0 -20-20zm0 38a18 18 0 1 1 18-18 18.021 18.021 0 0 1 -18 18z"/><path d="m21 61h22v2h-22z"/><path d="m44 22h-1.586l-5.707-5.707a1 1 0 0 0 -1.414 0l-2 2a1 1 0 0 0 0 1.414l2.293 2.293h-7.172l2.293-2.293a1 1 0 0 0 0-1.414l-2-2a1 1 0 0 0 -1.414 0l-5.707 5.707h-1.586a1 1 0 0 0 -1 1v4a1 1 0 0 0 1 1h1.256l2.786 9.287a1 1 0 0 0 .958.713h14a1 1 0 0 0 .958-.713l2.786-9.287h1.256a1 1 0 0 0 1-1v-4a1 1 0 0 0 -1-1zm-8.586-3 .586-.586 3.586 3.586h-1.172zm-7.414-.586.586.586-3 3h-1.172zm5 14.586h3v3h-3zm-2 3h-3v-3h3zm2-5v-3h3v3zm-2 0h-3v-3h3zm-5 0h-1.756l-.9-3h2.656zm-1.156 2h1.156v3h-.256zm13.412 3h-.256v-3h1.156zm1.5-5h-1.756v-3h2.656zm3.244-5h-22v-2h22z"/></svg>