<?xml version="1.0" standalone="no"?>
<!DOCTYPE svg PUBLIC "-//W3C//DTD SVG 20010904//EN"
 "http://www.w3.org/TR/2001/REC-SVG-20010904/DTD/svg10.dtd">
<svg version="1.0" xmlns="http://www.w3.org/2000/svg"
 width="1280.000000pt" height="1280.000000pt" filter="drop-shadow(0.01em 0.65em 3px #10101066)" viewBox="0 0 1280.000000 1280.000000"
 preserveAspectRatio="xMidYMid meet">
<g transform="translate(50.000000,1050.000000) scale(0.100000,-0.100000)"
fill="#f7f7f7" stroke="none">
<path d="M3260 10224 c-1085 -133 -2043 -725 -2657 -1642 -315 -472 -523
-1046 -588 -1624 -25 -218 -17 -765 14 -963 128 -825 498 -1543 1092 -2120
541 -524 1227 -874 1954 -994 238 -40 326 -46 625 -46 308 0 393 7 648 51 442
75 890 244 1275 478 60 36 112 66 116 66 3 0 56 -49 116 -110 60 -60 114 -110
120 -110 5 0 246 236 535 525 l525 525 -117 117 -117 118 65 105 c139 224 293
561 372 811 67 211 122 471 154 729 17 140 17 660 0 800 -107 860 -446 1580
-1027 2179 -577 594 -1293 963 -2120 1092 -121 19 -189 22 -505 25 -268 2
-396 -1 -480 -12z m775 -689 c716 -84 1343 -392 1837 -903 703 -728 992 -1757
771 -2752 -100 -454 -301 -871 -597 -1240 -85 -106 -294 -318 -406 -412 -372
-312 -808 -527 -1280 -631 -534 -119 -1093 -91 -1607 79 -1043 344 -1819 1235
-2017 2314 -47 258 -60 630 -31 885 66 571 290 1111 645 1555 108 135 325 352
460 460 439 351 979 577 1540 644 160 19 524 20 685 1z"/>
<path d="M2087 8606 c-72 -27 -297 -241 -437 -417 -334 -419 -518 -876 -571
-1417 -15 -146 -6 -469 16 -612 74 -477 258 -902 552 -1270 88 -110 295 -318
403 -404 47 -37 136 -102 199 -144 99 -65 122 -76 167 -80 70 -6 96 2 140 40
45 40 64 83 64 145 0 76 -28 111 -164 203 -152 103 -237 172 -356 290 -641
640 -836 1611 -493 2455 125 308 292 548 556 800 83 80 151 153 157 169 16 46
12 113 -10 156 -39 77 -142 116 -223 86z"/>
<path d="M6757 3482 c-290 -290 -527 -530 -527 -535 0 -16 2495 -2720 2553
-2767 80 -64 221 -134 321 -160 63 -16 112 -20 236 -20 139 0 168 3 244 25
304 88 543 327 631 631 22 76 25 105 25 244 0 124 -4 173 -20 236 -26 102 -96
242 -160 322 -28 34 -412 394 -853 799 -441 406 -1050 966 -1354 1245 -304
280 -556 508 -560 508 -5 0 -245 -237 -536 -528z"/>
</g>
</svg>
